<svg xmlns="http://www.w3.org/2000/svg" viewBox="0 0 64 64">
  <defs>
    <linearGradient id="iconBg" x1="0%" y1="0%" x2="100%" y2="100%">
      <stop offset="0%" stop-color="#274872" />
      <stop offset="100%" stop-color="#17385f" />
    </linearGradient>
    <linearGradient id="iconBlue" x1="0%" y1="0%" x2="100%" y2="100%">
      <stop offset="0%" stop-color="#5f9cff" />
      <stop offset="100%" stop-color="#2e79ea" />
    </linearGradient>
    <linearGradient id="iconOrange" x1="0%" y1="0%" x2="100%" y2="100%">
      <stop offset="0%" stop-color="#ffaf4e" />
      <stop offset="100%" stop-color="#ff8131" />
    </linearGradient>
  </defs>
  <rect x="4" y="4" width="56" height="56" rx="16" fill="url(#iconBg)" />
  <rect x="10" y="10" width="30" height="30" rx="9" fill="url(#iconBlue)" />
  <path d="M18 30.2c5.8-4.9 9.5-8.6 9.5-12.3 0-2.3-1.7-3.9-4.4-3.9-2.1 0-3.9 1-5.5 2.8l-1.8-1.8c2.2-2.4 4.6-3.7 7.7-3.7 4.8 0 7.9 2.6 7.9 6.7 0 4.2-3.2 8.3-7 12 1.2-.1 2.8-.2 3.9-.2H32V34H18v-3.8z" fill="#ffffff"/>
  <path d="M29.8 48.2 37.4 37h4.9l-7.2 10.6 7.5 11.1h-4.9l-3-4.7-3.1 4.7h-4.9l7.6-10.9-7.2-10.8h4.9l2.8 4.4 3-4.4h4.8l-7.2 11z" fill="#ffffff"/>
  <path d="M43 15.5h11.5" stroke="url(#iconOrange)" stroke-width="4" stroke-linecap="round" />
  <path d="M48.8 9.8v11.4" stroke="url(#iconOrange)" stroke-width="4" stroke-linecap="round" />
</svg>
